<?xml version="1.0" standalone="no"?>
<!DOCTYPE svg PUBLIC "-//W3C//DTD SVG 20010904//EN"
 "http://www.w3.org/TR/2001/REC-SVG-20010904/DTD/svg10.dtd">
<svg version="1.0" xmlns="http://www.w3.org/2000/svg"
 width="512.000000pt" height="512.000000pt" viewBox="0 0 512.000000 512.000000"
 preserveAspectRatio="xMidYMid meet">
<metadata>
Created by potrace 1.11, written by Peter Selinger 2001-2013
</metadata>
<g transform="translate(0.000000,512.000000) scale(0.100000,-0.100000)"
fill="#000000" stroke="none">
<path d="M2355 5109 c-33 -4 -71 -10 -85 -12 -14 -3 -43 -8 -65 -12 -22 -4
-87 -20 -144 -36 -435 -123 -809 -407 -1050 -796 -111 -180 -211 -441 -238
-618 -2 -16 -6 -36 -8 -43 -18 -52 -25 -349 -12 -477 27 -262 125 -553 256
-760 65 -103 269 -360 326 -410 6 -5 17 -19 25 -31 8 -11 32 -41 52 -65 113
-134 253 -325 375 -509 46 -69 88 -130 93 -137 6 -7 10 -15 10 -18 0 -4 13
-25 28 -48 106 -156 355 -639 457 -887 89 -217 91 -219 132 -236 75 -32 145 5
178 94 82 220 315 704 414 862 6 8 33 56 62 105 69 117 247 383 345 516 73 98
212 278 224 289 3 3 28 32 55 65 28 33 66 78 87 100 121 133 229 286 302 429
259 510 267 1100 21 1614 -181 377 -477 672 -855 854 -152 73 -354 136 -495
154 -22 3 -47 8 -55 11 -25 9 -371 11 -435 2z m337 -999 c91 -16 192 -54 272
-103 72 -43 181 -143 229 -209 54 -74 107 -197 133 -309 3 -13 7 -69 10 -124
13 -344 -204 -655 -535 -765 -86 -29 -136 -35 -261 -34 -344 3 -647 241 -737
580 -25 96 -25 314 1 399 86 283 295 486 570 554 84 21 231 26 318 11z"/>
</g>
</svg>
